<svg id="Layer_1" data-name="Layer 1" xmlns="http://www.w3.org/2000/svg" viewBox="0 0 256 256"><defs><style>.cls-1{fill:#231f20;}</style></defs><path class="cls-1" d="M117.51,206.92A820.47,820.47,0,0,1,226.44,196.1c3.14-.11,6.54-2.24,7.23-5.51C242.8,147.41,247.09,103,239,59.34c-.6-3.26-4.13-5.44-7.23-5.51-17.48-.4-35-.76-52.44-1-17.2-.21-34.42.07-51.43,2.95-7.21,1.22-14.38,2.89-16.38,11s-2,17.13-2.76,25.41c-1.63,17.66-2.86,35.37-4,53.07-1.21,19-4.45,39.59,1.7,58.08l9.22-9.23a482,482,0,0,0-90.18-8.47l7.5,7.5c-5.74-45.95-2.49-92.33-5.42-138.45l-7.5,7.5c17.61-.06,35.23,0,52.83.61,14.79.48,29.89,1.75,42.78,9.67,8.25,5.06,15.8-7.91,7.57-12.95-14.16-8.7-30.72-10.91-47-11.59-18.69-.79-37.44-.81-56.14-.74-3.86,0-7.76,3.43-7.5,7.5,2.93,46.12-.32,92.5,5.42,138.45.51,4,3,7.51,7.5,7.5a459.93,459.93,0,0,1,86.2,7.94c5.23,1,11.17-3.39,9.22-9.23-3.13-9.42-3.18-19.06-2.7-28.89s1.17-19.43,1.8-29.13c1.33-20.66,2.84-41.31,5-61.89.24-2.29.43-4.59.74-6.86a6,6,0,0,1,.37-2.42c-1.48,1.43-1.42,1.83.17,1.18,1.58.5,5.77-1.1,7.49-1.37,2.47-.39,4.95-.69,7.44-.94a282.37,282.37,0,0,1,29.52-1.23c20.35,0,40.7.58,61,1l-7.23-5.51c7.59,40.91,3.22,82.89-5.31,123.28l7.23-5.5a853.64,853.64,0,0,0-112.92,11.35c-9.5,1.59-5.47,16.05,4,14.47Z"/></svg>