<svg id="Layer_2" data-name="Layer 2" xmlns="http://www.w3.org/2000/svg" viewBox="0 0 256 256"><defs><style>.cls-1{fill:#892cdc;}</style></defs><path class="cls-1" d="M5.22,111.18,53.85,219.09c3.33,7.38,14.06,9.16,20.53,5.38C82,220,83.1,211.36,79.76,204L31.12,96c-3.33-7.39-14-9.16-20.52-5.38C3,95.1,1.88,103.77,5.22,111.18Z"/><path class="cls-1" d="M22.16,118.07,142.08,73.93c7.6-2.8,12.75-10.17,10.47-18.46-2-7.31-10.81-13.28-18.45-10.47L14.18,89.15C6.59,91.94,1.43,99.32,3.71,107.6c2,7.31,10.81,13.29,18.45,10.47Z"/><path class="cls-1" d="M177,59.48c7.84,0,15.36-6.9,15-15s-6.59-15-15-15c-7.85,0-15.37,6.9-15,15s6.59,15,15,15Z"/><path d="M109.48,210.47,245.4,150.05c7.4-3.29,9.15-14.08,5.38-20.52-4.46-7.63-13.09-8.69-20.52-5.38L94.34,184.56c-7.4,3.29-9.15,14.08-5.38,20.52,4.46,7.63,13.09,8.69,20.52,5.39Z"/><path d="M168.13,154.67,145.87,104.6c-3.29-7.4-14.08-9.15-20.52-5.38-7.63,4.46-8.69,13.09-5.38,20.52l22.25,50.08c3.29,7.4,14.09,9.14,20.53,5.38,7.62-4.46,8.68-13.09,5.38-20.53Z"/></svg>