<svg id="Layer_1" data-name="Layer 1" xmlns="http://www.w3.org/2000/svg" viewBox="0 0 256 256"><defs><style>.cls-1{fill:#231f20;}</style></defs><path class="cls-1" d="M56.08,215.24l101-4.25,24.76-1c8.06-.34,16.81.26,24.75-1.17,8.36-1.51,9-8.77,7.8-15.82-1.35-8-3.75-15.76-5.35-23.67-3.21-15.81-4.65-31.58-6.17-47.6-.93-9.66-8.28-10.79-16.54-11.1s-16.38.22-24.55.56c-33.42,1.35-67,2.46-100.33,5.06-3.93.31-7.48,1.13-9.66,4.75s-2.29,8.72-3,12.78q-2.16,13.33-3.57,26.8-1.44,13.88-2,27.84c-.37,8.87-1.14,18.13,1.06,26.83,2.36,9.35,16.83,5.39,14.46-4-1.61-6.39-.86-13.42-.63-20q.38-11.06,1.32-22.1c.59-7,1.34-14,2.29-21,.47-3.49,1-7,1.55-10.43q.47-2.85,1-5.7l.34-1.89q1.19-4-1.36.23l-3.79,1c10.71-1.27,21.71-1.34,32.48-1.93q16.73-.9,33.44-1.71,16.24-.77,32.47-1.44c5.57-.23,11.15-.48,16.72-.66,2.94-.1,5.89-.16,8.83-.13,1.31,0,2.61,0,3.92.11.65,0,1.3.06,2,.11q2.37.49-.51-1.44l-1-3.79c2.16,19,3.6,37.77,7.63,56.53.93,4.35,2,8.66,3,13,.45,1.85.55,5.38,1.53,6.94q-.21,3.65,2.43-.72,4.55-3,.27-2.15c-2.18-.57-5.65.24-7.92.33l-7.92.34-13.87.58L56.08,200.24c-9.61.41-9.67,15.41,0,15Z"/><path class="cls-1" d="M66.46,124.06q-4.69-17.44-10.88-34.43L52.13,98.1c21.26-11.26,45.19-16.61,68-23.72Q156.47,63.07,192.21,50l-8.47-3.45,10.5,24.48,2.69-10.26c-20.76,13-44.93,20.52-68,28.12-23.54,7.74-47.14,15.3-69.62,25.83-8.74,4.09-1.13,17,7.57,13,22.39-10.49,46.09-17.71,69.52-25.47,23.13-7.65,47.36-15.48,68.14-28.47,3.75-2.35,4.33-6.43,2.69-10.27L196.69,39c-1.21-2.81-5.66-4.47-8.47-3.45q-36.66,13.37-73.92,25C90.79,67.79,66.45,73.56,44.56,85.15c-2.72,1.44-4.54,5.48-3.45,8.47q6.2,17,10.89,34.43c2.51,9.31,17,5.36,14.46-4Z"/></svg>