<svg id="Layer_1" data-name="Layer 1" xmlns="http://www.w3.org/2000/svg" viewBox="0 0 256 256"><defs><style>.cls-1{fill:#231f20;}</style></defs><path class="cls-1" d="M65.63,43.57C79.8,68.78,93,94.87,99.49,123.23c1.56,6.8,2.66,13.7,4.3,20.48s4.36,13.71,5.28,20.79a39.72,39.72,0,0,1-11.93,33.74c-7.48,7.1-23.37,15.34-32.82,7.52-10.26-8.5-11.66-22.74-6-34.15s17-15,29-15.39a148.27,148.27,0,0,1,38.4,4.21,189.34,189.34,0,0,1,77.69,38.87c7.38,6.12,18.05-4.44,10.61-10.61-24.28-20.14-52.71-35.23-83.5-42.53-26.4-6.26-66.7-12.35-83.59,15-8.78,14.24-9.64,31.78-.6,46,4.28,6.75,9.88,12.76,17.7,15.22,7.5,2.35,16,1.27,23.34-1.26a54.41,54.41,0,0,0,36.93-52.87c-.25-8.32-2.73-16.19-4.92-24.14-2.59-9.37-4-19-6.32-28.44a218.81,218.81,0,0,0-8.94-27.49C97,70.16,88.09,52.92,78.58,36c-4.73-8.42-17.69-.87-13,7.57Z"/><path class="cls-1" d="M96,83c6.46-2.83,13.74-4.15,20.54-6l24-6.35,47.08-12.44c9.33-2.46,5.37-16.94-4-14.47l-49,12.95C119.32,60.81,103,63.7,88.41,70.07c-3.73,1.64-4.52,7-2.69,10.26C87.92,84.18,92.3,84.64,96,83Z"/></svg>